Patient4_TMGait_0pt5_02_right_40_EMG.mot
version=1
nRows=36
nColumns=33
inDegrees=no
endheader
time	1LAddLong	2LGlutMax	3LGlutMed	4LIliopsoas	5LSemiMemb	6LBicFemLong	7LRecFem	8LVastMed	9LVastLat	10LGasMed	11LTibAnt	12lTibPost	13LPeroneusLong	14LSol	15LExtDigLong	16LFlexDigLong	17RAddLong	18RGlutMax	19RGlutMed	20RIliopsoas	21RSemiMemb	22RBicFemLong	23RRecFem	24RVastMed	25RVastLat	26RGasMed	27RTibAnt	28RTibPost	29RPeroneusLong	30RSol	31RExtDigLong	32RFlexDigLong
53.613	0.007629	-0.001526	0.009613	0.011139	0.01297	0.01236	0.086823	0.022125	-0.041962	0.009003	-0.026245	-0.001068	0.012054	-0.021667	0.029297	-0.004578	-0.023651	-0.060883	0.033112	0.070801	0.082397	-0.021057	0.046692	-0.10254	-0.004272	0.15076	0.0354	-0.003357	0.039825	0.040588	0.001373	0.016632
53.614	-0.002747	-0.028839	0.047913	-0.009003	0.007324	0.024414	0.041504	0.027771	-0.049438	-0.005341	-0.038605	-0.002136	0.001526	0.08316	0.038605	0.002289	-0.099335	-0.084991	-0.003204	0.069275	0.10422	-0.1651	-0.010376	-0.010223	0.006866	0.20691	0.067139	-0.00412	0.022278	0.006409	0.001678	0.016174
53.615	0.02121	-0.019226	-0.055389	0.010223	0.009918	-0.015564	-0.063477	0.031433	-0.037384	-0.014191	-0.021667	-0.00351	0.001221	0.15213	0.047455	-0.003052	-0.14923	-0.016022	0.037994	0.027618	0.14206	-0.17105	-0.013428	0.007782	0.003357	0.24094	0.10147	-0.003662	0.012512	0.00946	-0.003204	0.020752
53.616	0.00946	-0.00473	0.03952	0.011292	0.010529	-0.026703	-0.058441	0.011292	-0.094452	-0.011292	0.015717	-0.004578	-0.006104	-0.050201	0.11185	0.020294	-0.1683	-0.051117	0.023193	0.014648	0.11734	-0.066376	-0.006866	0.007782	-0.005035	0.25726	0.12436	-0.003967	0.012207	-0.003052	0.001068	0.028839
53.617	0.015564	-0.029449	0.10193	0.013428	0.013428	-0.002136	0.006714	-0.004883	-0.063324	-0.015106	0.089417	-0.000153	-0.010834	-0.13825	0.088348	0.000916	-0.18448	-0.006561	-0.001984	-0.018005	0.04364	-0.15579	0.001068	0.005341	-0.003662	0.26581	0.14069	-0.004425	-0.00351	-0.009308	0.001068	0.036621
53.618	-0.001526	-0.041656	0.046539	0.014038	0.012207	0.036621	0.11917	0.000916	-0.037537	-0.007782	0.14343	0.000763	-0.030212	-0.015564	0.076447	-0.004425	-0.17197	-0.017548	-0.058441	-0.023499	0.024567	-0.16892	-0.023499	0.020447	0.01297	0.24323	0.12772	-0.001678	-0.019989	-0.02182	0.000763	0.042267
53.619	-0.00061	-0.049591	-0.052948	-0.013885	0.002899	0.049133	0.24765	0.009766	0.053406	-0.019531	0.21225	-0.003204	-0.001373	0.016479	0.083008	0.022888	-0.15884	-0.034485	-0.055237	-0.030365	0.021973	-0.10071	-0.029449	-0.055847	0.024261	0.19638	0.13001	-0.003052	-0.045166	-0.029907	0.001373	0.048523
53.62	-0.000305	-0.024414	-0.10635	0.00473	0.004578	0.046692	0.27237	0.006104	0.112	-0.005798	0.16647	-0.005341	-0.028381	0.029297	0.1384	-0.005341	-0.11826	-0.016937	-0.01709	-0.042114	0.031891	-0.093384	-0.028992	-0.046234	0.004425	0.14771	0.14038	-0.00824	-0.049133	-0.037079	-0.000916	0.049438
53.621	-0.001831	0.003204	0.021057	-0.007629	0.007629	0.027313	0.18524	0.041046	0.19516	0.001678	0.015717	0	-0.063629	0.032501	-0.045319	0.011902	-0.060883	-0.021515	0.10681	-0.011902	0.031586	-0.066833	-0.019989	-0.03006	0.019073	0.10284	0.15945	-0.003357	-0.009003	-0.052032	-0.001831	0.048065
53.622	0.001678	-0.042725	0.014343	0.005951	-0.011444	0.000763	0.11414	-0.018921	0.15884	0.01358	-0.18494	-0.006561	-0.09491	0.027008	0.29755	-0.002289	0.005035	-0.04364	0.072632	0.003662	0.032959	0.060425	0.014648	-0.079041	-0.002441	0.060272	0.17578	-0.003357	0.032349	-0.052338	0.007172	0.04425
53.623	-0.007172	-0.060425	0.076904	-0.002441	-0.023651	-0.000916	0.13077	-0.017548	0.028534	-0.005188	-0.13153	-0.001373	-0.053253	0.032654	-0.17166	0.001221	0.053864	-0.074615	-0.020294	-0.013733	0.020599	0.22934	-0.016022	-0.080109	0.009918	0.02655	0.1535	-0.006714	0.038452	-0.056915	0.001068	0.008545
53.624	-0.016785	-0.03479	0.066071	0.008698	-0.031128	0.004425	0.11246	-0.007324	0.033264	-0.011139	-0.031433	0.001984	-0.006866	0.063019	-0.012665	0.006256	0.076294	-0.059662	0.068207	-0.021057	-0.091705	0.12238	0.046387	-0.064087	0.027466	0.00473	0.20035	-0.006561	0.05661	-0.039368	0.001678	-0.34149
53.625	-0.007172	-0.053101	0.012817	0.032959	-0.004425	0.02655	0.12146	0.004883	0.045471	-0.027771	-0.071869	-0.003662	0.070343	0.10468	-0.2478	-0.003815	0.067596	-0.02655	0.13641	-0.00824	-0.20615	0.090637	0.034332	-0.041351	0.02182	-0.012817	0.17487	-0.004272	0.043793	-0.037689	0.001373	-0.37048
53.626	0.002136	-0.069122	-0.11353	0.028839	0.013733	0.011902	0.11505	0.004272	0.0383	-0.010529	0.10117	0.002136	0.038605	0.11185	-0.27206	0.001373	0.056458	-0.10941	-0.036011	0.055237	-0.29724	0.055847	0.022736	-0.077515	0.011597	-0.02655	-0.053406	-0.00824	0.023956	-0.042267	0.001831	-0.30579
53.627	0.002899	-0.042572	-0.15686	0.013733	-0.030365	-0.052338	0.14221	0.013428	0.043793	-0.018768	0.10529	-0.001221	0.045776	0.076294	0.14542	-0.011292	0.05661	-0.12528	-0.17716	0.012207	-0.14511	0.019073	0.024109	-0.049896	0.01709	-0.041504	0.030518	-0.009766	-0.028229	-0.060425	0.003815	-0.22064
53.628	0.028076	-0.006561	-0.087738	-0.004883	-0.043335	-0.066223	0.14053	-0.002136	0.044403	-0.049744	-0.11017	0.005341	0.12466	0.076141	0.12726	0.002136	0.058441	-0.05722	-0.019684	-0.045013	0.21545	0.016785	0.016327	-0.061951	-0.005798	-0.041962	0.15137	-0.005035	0.045166	-0.065308	0.000305	-0.1535
53.629	0.026703	-0.02121	-0.12436	-0.00351	0.012054	-0.035553	0.14862	0.007782	0.039825	-0.041504	-0.13473	-0.004425	0.11643	0.012512	-0.24841	0.002594	0.068207	-0.018311	0.15732	-0.018158	0.27191	0.023499	0.017548	-0.11704	0.003815	-0.053406	0.18799	-0.00412	0.17532	-0.1091	0.001373	-0.1001
53.63	0.025024	0.00351	-0.052185	-0.005493	0.039978	-0.006561	0.13245	-0.008392	0.018616	-0.043182	-0.076599	0.000153	0.06958	-0.030975	0.000916	-0.004425	0.023804	-0.037231	0.19928	0.004578	0.31479	0.029449	-0.002289	-0.081635	0.003967	-0.052795	0.031128	-0.005341	0.13016	-0.11948	0	-0.054016
53.631	0.024872	-0.043793	-0.21271	0.010529	0.10315	0.044098	0.15427	-0.00473	0.007935	-0.037384	0.037689	-0.001984	0.013428	-0.10346	-0.003204	-0.003662	0.001984	-0.047913	0.044708	0.06424	0.27588	0.016174	0.036163	-0.079193	0.008087	-0.049744	-0.12726	-0.003204	-0.53314	-0.14008	0.002899	-0.02655
53.632	0.005341	-0.03418	-0.14999	0.007782	0.084381	0.04715	0.18127	-0.005798	0.006714	-0.028839	0.092316	-0.00885	-0.010223	-0.12528	-0.015717	0.020294	0.031128	-0.021667	-0.17334	0.09201	0.062714	0.006409	-0.006866	-0.054169	0.009003	-0.045013	-0.2092	-0.005035	-0.34866	-0.16693	0	-0.006409
53.633	0.008392	0.014191	-0.000153	0.016174	0.02533	0.024414	0.19623	0.010986	0.005493	-0.031128	0.11963	-0.002594	-0.034027	-0.16449	-0.12894	0.01297	0.027161	-0.000153	-0.32974	0.071716	0.11139	-0.039978	0.016174	-0.069733	0.020142	-0.049286	-0.35828	-0.003204	0.28595	-0.15167	0.005035	0.01236
53.634	0.004883	0.018921	0.1358	0.017853	-0.022736	0.021057	0.16388	0.003967	0.001984	-0.037689	0.024261	-0.007782	-0.058289	-0.1294	-0.14725	0.007324	0.013428	0.008545	-0.16159	0.089417	0.14801	-0.043182	0.000458	-0.04837	0.012817	-0.046082	-0.32776	-0.002594	0.32257	-0.12039	0.002289	0.024109
53.635	0.001984	0.003357	0.11353	0.016174	-0.019836	0.007019	0.13306	0.011444	-0.012512	-0.033875	-0.12482	-0.001678	-0.045013	-0.049744	-0.13046	0.003815	0.011749	0.021362	0.31479	0.013885	0.22201	-0.037994	-0.016174	-0.027313	0.032654	-0.043335	-0.37994	-0.00061	0.20126	-0.1294	0.003357	0.031281
53.636	0.012512	0.002594	-0.046997	0.015411	0.000916	0.010223	0.12238	0.012817	0.001984	-0.025787	-0.11322	-0.007019	-0.029602	-0.031433	-0.10315	0.001984	0.020905	-0.017548	0.35843	0.001984	0.14877	0.002289	-0.02655	-0.017242	0.02121	-0.041504	-0.23407	-0.003357	0.25192	-0.10666	0.001221	0.032806
53.637	0.015564	0.011292	-0.048523	-0.00412	0.044098	0.006866	0.15213	0.013123	-0.00061	0.037537	-0.10132	-0.003052	0.0354	-0.027161	-0.044861	0.004883	-0.004578	-0.045471	0.089722	0.004883	-0.12863	0.060577	-0.074615	0.004425	0.038757	-0.045319	0.26657	-0.00473	0.21774	0.002289	0.002899	0.03952
53.638	0.007629	-0.005341	-0.015869	0.005646	0.061951	0.020142	0.16724	0.011749	-0.011139	0.07843	-0.066833	-0.002594	0.12848	-0.00061	-0.005341	0.003052	0.000763	-0.083618	0.24384	-0.019989	-0.22919	0.093536	0.006256	-0.12985	0.025177	-0.040741	0.8667	-0.006714	0.12405	0.011139	0.001831	0.04303
53.639	0.011292	-0.010834	0.007477	0.013275	0.048065	0.044708	0.18921	0.00824	-0.015259	0.075378	-0.019684	-0.00412	0.13397	0.009308	0.045471	0.002594	0.019836	-0.094299	0.056458	-0.010834	-0.11108	0.02655	-0.017395	-0.091858	0.017395	-0.04364	0.93781	0.002594	0.42511	-0.038452	0.003357	0.046844
53.64	0.009003	-0.010223	-0.032196	-0.006866	0.023193	0.045013	0.19562	0.015869	-0.025024	0.007019	-0.016327	-0.006104	0.064087	0.080109	0.076294	0.00061	0.004272	-0.074005	0.076599	0.005646	0.17319	0.070648	-0.029907	-0.055389	0.020142	-0.042572	-0.16922	-0.005798	0.079803	-0.015106	0.002899	0.038147
53.641	0.012512	0.023041	-0.049286	0.003662	0.036621	0.013733	0.19424	0.019684	-0.033112	-0.086517	-0.019073	0.003204	-0.038757	0.092773	0.10773	0.006104	-0.012512	-0.093384	0.075531	-0.014038	0.09201	0.042419	-0.016174	-0.008698	0.030365	-0.044403	-0.53513	-0.003815	-0.23987	0.022736	0.002594	0.043488
53.642	0.007629	0.019684	-0.050812	0.020142	0.032196	-0.024414	0.22003	0.013428	-0.037537	-0.17319	-0.023346	-0.001678	-0.049286	-0.015869	0.14267	-0.004425	-0.022278	-0.092926	0.073853	-0.029449	-0.036163	0.028381	-0.03006	0	0.030823	-0.04364	-0.31357	-0.00824	-0.26535	0.050201	0.002747	0.033417
53.643	0.016327	0.040131	-0.018311	-0.00061	0.004883	0.018158	0.20935	0.010223	-0.017395	-0.11643	-0.015411	-0.002136	-0.087585	-0.14313	0.15518	-0.080109	-0.023804	-0.051117	0.071259	-0.014038	-0.089111	0.030823	-0.010071	-0.003967	0.038605	-0.04303	-0.21103	0.000916	-0.095978	0.095062	0.00351	0.039063
53.644	0.016174	0.022888	-0.019531	0.008545	0.000153	0.005646	0.20584	0.010834	0.02655	0.041046	0	-0.007629	-0.072174	-0.15656	0.13336	-0.793	-0.011597	-0.090027	0.001678	-0.014648	0.001526	0.041809	0.005951	-0.028534	0.019684	-0.048828	-0.19913	-0.006866	-0.009308	0.13565	0.006409	0.033264
53.645	0.014191	0.037537	-0.044708	0.002747	-0.000916	-0.021667	0.18723	0.00824	0.038605	0.20615	0.016632	0.010529	-0.059814	-0.1564	0.077362	0.22614	0.013428	-0.08316	-0.14771	-0.011139	-0.041962	0.036469	0.031586	-0.006714	0.006409	-0.042419	-0.10941	-0.00946	0.029907	0.11017	0.005493	0.032196
53.646	-0.023804	0.037079	-0.057831	0.00885	0.034943	-0.00473	0.15106	0.010071	0.036469	0.39154	0.028839	0.015259	-0.0354	-0.17059	0.021057	-0.18127	0.031738	-0.12131	-0.065155	0.028381	0.035553	0.076904	0.016327	-0.027008	0.012817	-0.044098	-0.06958	-0.007019	0.009613	0.11749	0.003815	0.027771
53.647	-0.044403	0.016479	-0.066071	-0.003662	0.041199	-0.00412	0.13504	0.014496	0.027466	0.21362	0.019684	0.010071	0.052185	-0.11368	0.00473	0.38711	0.009766	-0.10391	-0.066986	0.026398	0.18097	0.057831	0.039215	0.024414	0.010834	-0.045166	-0.017853	-0.010681	0.006866	0.090942	0.007324	0.015564
53.648	-0.056	0.016785	-0.065765	-0.009003	-0.007477	-0.007019	0.14877	0.017548	-0.032349	-0.064087	0.018005	0.019836	0.12146	0.020142	-0.032654	0.55771	0.017242	-0.075531	-0.08667	0.050964	0.1001	-0.028992	-0.011139	0.009308	0.021667	-0.038757	-0.009766	-0.007019	-0.24628	-0.023346	0.005341	0.014191
